PathFileType  4	(X/Y/Z) C:\Users\antoi\Documents\MyRepositories\mobilecap\ResultsAnalysis
DataRate	CameraRate	NumFrames	NumMarkers	Units	OrigDataRate	OrigDataStartFrame	OrigNumFrames
100.0	100.0	4	51	mm	100.0	676	901
Frame#	Time	r_knee			r_shank_antsup			r_ankle			r_calc			r_5meta			r_toe			L_knee			L_shank_antsup			L_ankle			L_calc			L_5meta			L_toe			r_sh2			r_sh3			r_sh4			L_sh2			L_sh3			r_thigh1			r_thigh2			r_thigh3			r_thigh4			r_thigh5			L_thigh1			L_thigh2			L_thigh3			L_thigh4			r.ASIS			r.PSIS			L.ASIS			L.PSIS			C7			R_Shoulder			L_Shoulder			R_Sternum			L_Sternum			R_humerus			R_elbow_med			R_elbow_lat			R_forearm			R_wrist_radius			R_wrist_ulna			L_humerus			L_elbow_med			L_elbow_lat			L_forearm			L_wrist_radius			L_wrist_ulna			R_HJC			L_HJC			R_HJC_reg			L_HJC_reg			
		X1	Y1	Z1	X2	Y2	Z2	X3	Y3	Z3	X4	Y4	Z4	X5	Y5	Z5	X6	Y6	Z6	X7	Y7	Z7	X8	Y8	Z8	X9	Y9	Z9	X10	Y10	Z10	X11	Y11	Z11	X12	Y12	Z12	X13	Y13	Z13	X14	Y14	Z14	X15	Y15	Z15	X16	Y16	Z16	X17	Y17	Z17	X18	Y18	Z18	X19	Y19	Z19	X20	Y20	Z20	X21	Y21	Z21	X22	Y22	Z22	X23	Y23	Z23	X24	Y24	Z24	X25	Y25	Z25	X26	Y26	Z26	X27	Y27	Z27	X28	Y28	Z28	X29	Y29	Z29	X30	Y30	Z30	X31	Y31	Z31	X32	Y32	Z32	X33	Y33	Z33	X34	Y34	Z34	X35	Y35	Z35	X36	Y36	Z36	X37	Y37	Z37	X38	Y38	Z38	X39	Y39	Z39	X40	Y40	Z40	X41	Y41	Z41	X42	Y42	Z42	X43	Y43	Z43	X44	Y44	Z44	X45	Y45	Z45	X46	Y46	Z46	X47	Y47	Z47	X48	Y48	Z48	X49	Y49	Z49	X50	Y50	Z50	X51	Y51	Z51	

676	6.75000000	-231.62309	608.31254	-336.30019	-206.25729	459.53115	-330.77727	-298.09926	102.22607	-302.84079	-357.03587	72.22137	-363.79595	-162.39871	42.50966	-270.68757	-124.20182	68.15496	-322.71604	-271.08299	609.40390	-856.29904	-236.28325	412.08117	-886.92771	-341.22886	118.06533	-928.86368	-395.21865	75.14412	-871.48235	-197.64540	35.61900	-969.79208	-157.06477	69.06752	-912.49016	-218.37155	347.33180	-325.32879	-270.83984	467.20341	-292.97943	-285.14119	356.67943	-278.01933	-313.41868	438.15760	-921.89618	-335.38643	318.70482	-923.79008	-304.27672	893.82732	-331.18206	-252.03562	795.54806	-322.77045	-299.31562	744.81579	-320.55583	-399.33895	844.47890	-367.58789	-347.67156	738.72073	-347.78489	-279.40639	900.73882	-780.03328	-245.60226	776.46771	-818.19440	-387.26604	879.00568	-786.76487	-349.90124	753.88959	-833.05365	-309.68571	1118.92067	-398.58819	-463.68664	1196.27130	-513.56582	-275.76383	1100.64539	-667.53560	-446.89634	1192.03788	-603.81717	-182.56596	1609.43031	-507.86272	-104.06816	1528.55503	-341.25288	-101.43084	1557.18387	-678.40101	-67.14618	1485.74283	-484.55825	-66.84781	1488.46482	-528.46673	-83.04888	1275.78286	-252.76308	-161.98931	1133.02428	-251.95834	-117.42493	1170.88491	-182.51196	50.22989	1193.76591	-310.80766	115.77913	1208.54316	-369.30777	125.68270	1175.49934	-355.75548	-81.22390	1280.70524	-751.13452	-176.52423	1180.86053	-749.88656	-117.09789	1195.13504	-808.95163	52.66639	1201.77890	-692.98672	101.42283	1212.70272	-639.23685	111.60291	1186.54452	-659.62378	-405.57522	1047.70334	-444.33528	-384.00286	1040.08590	-640.48208	-397.93411	1053.83024	-451.28279	-365.17011	1045.56884	-627.38794	
677	6.76000000	-232.67695	608.79286	-338.31162	-207.66895	460.10805	-332.09835	-298.07458	102.39156	-303.10919	-357.03973	72.29356	-363.80007	-162.38189	42.53585	-270.73271	-124.19696	68.13409	-322.74623	-272.46819	609.68930	-856.19383	-237.39261	412.52629	-886.61410	-341.31321	118.03964	-928.99215	-395.24602	75.16527	-871.57717	-197.69034	35.39733	-969.48494	-157.04514	69.04908	-912.53227	-219.48696	347.90363	-326.18909	-272.20591	467.75249	-294.24351	-286.02594	357.13819	-279.22345	-314.58172	438.21463	-921.93687	-336.16502	318.71968	-923.79019	-300.47159	895.70874	-333.83086	-250.01188	796.43228	-325.29165	-298.26166	746.89398	-322.62832	-396.48457	847.94124	-369.91258	-346.72444	741.35398	-349.84459	-276.17160	901.84482	-782.14951	-244.57142	776.68501	-819.30681	-384.38901	881.69356	-788.17326	-349.22353	755.75713	-833.65928	-303.75849	1123.85184	-402.09514	-459.63158	1198.76290	-516.30195	-270.96629	1106.16202	-670.83059	-443.23604	1194.79982	-606.85073	-187.49957	1617.44224	-511.24257	-106.95629	1536.88014	-344.02998	-105.29916	1566.64909	-681.88809	-69.90652	1496.38631	-487.58419	-69.58808	1498.73875	-531.57063	-90.29303	1284.52726	-254.99268	-171.05783	1142.90891	-254.69854	-126.63671	1180.13678	-185.16643	41.89295	1201.57662	-312.42069	107.70785	1215.84495	-370.74768	117.35179	1182.69026	-356.96640	-87.21142	1289.26848	-754.31543	-183.59972	1190.54151	-752.75087	-124.28647	1203.97932	-811.21224	45.59479	1209.52067	-695.64275	94.30320	1219.96738	-641.73277	104.41814	1193.82505	-662.37977	-398.83804	1051.16780	-447.31405	-378.01629	1043.83780	-643.55328	-391.16337	1057.48310	-454.24489	-359.28579	1049.77639	-630.27703	
678	6.77000000	-233.93287	609.29020	-340.43309	-209.20551	460.65727	-333.47008	-298.03589	102.61002	-303.21656	-357.06302	72.32723	-363.81409	-162.35921	42.60672	-270.80939	-124.19122	68.15819	-322.78247	-273.87803	609.90336	-855.88221	-238.53758	412.84982	-886.23438	-341.38973	117.99189	-929.14074	-395.26600	75.11090	-871.65717	-197.68790	35.37303	-969.55176	-157.03002	69.01499	-912.54595	-220.59510	348.45460	-327.13085	-273.72319	468.21504	-295.68009	-286.95684	357.65903	-280.35983	-315.69343	438.33072	-921.98362	-336.95693	318.77251	-923.79551	-296.83490	897.63189	-336.54814	-248.04625	797.22007	-327.86101	-297.31996	749.08313	-324.56369	-393.60598	851.42624	-372.28739	-345.91274	743.87794	-352.02811	-273.01676	902.83121	-784.26647	-243.56768	776.93825	-820.37923	-381.55760	884.27797	-789.59602	-348.52924	757.53106	-834.27633	-297.64681	1128.58052	-405.39989	-455.52585	1200.96903	-519.25355	-266.12598	1111.73842	-674.66215	-439.55336	1197.31480	-609.92095	-192.51579	1625.09200	-514.83512	-110.40059	1545.28383	-346.94604	-109.27847	1575.74200	-685.43668	-73.79110	1506.85892	-491.84938	-72.71679	1508.57169	-534.78079	-97.53272	1293.04231	-257.35749	-179.98886	1152.58578	-257.75325	-135.73813	1189.21645	-187.79988	33.61998	1209.25407	-314.09102	99.64935	1222.90321	-372.16353	109.04699	1189.72487	-358.28674	-93.08614	1297.55795	-757.77564	-190.46275	1199.78420	-756.05524	-131.15858	1213.10216	-814.86777	38.68762	1217.07482	-698.49988	87.36448	1227.10316	-644.51641	97.28404	1200.84367	-664.88625	-391.85161	1054.38055	-450.52595	-371.85585	1047.51195	-646.86747	-384.32835	1060.78620	-457.17864	-353.25275	1053.67761	-633.59377	
679	6.78000000	-235.42417	609.78852	-342.41583	-210.86664	461.20620	-334.92714	-297.97176	102.80472	-303.20453	-357.07368	72.35010	-363.85425	-162.35887	42.70462	-270.89454	-124.20549	68.23716	-322.84249	-275.18785	610.12549	-855.74323	-239.69768	413.11959	-886.05983	-341.49143	117.88977	-929.29737	-395.28194	74.99862	-871.73775	-197.69211	35.35223	-969.68449	-157.00936	68.92543	-912.60765	-221.80481	348.92459	-328.20891	-275.40811	468.62936	-297.27074	-288.21473	358.09569	-281.30916	-316.74712	438.51155	-922.01112	-337.73917	318.77509	-923.75260	-293.12494	899.44932	-339.32067	-246.09656	797.98531	-330.47398	-296.34381	751.11693	-326.64812	-390.73455	854.81701	-374.80446	-345.11598	746.42174	-354.24161	-269.84344	903.69179	-786.44074	-242.49866	777.11880	-821.45198	-378.70342	886.69150	-790.92563	-347.77948	759.18296	-834.80704	-291.38106	1133.17084	-408.73519	-451.31477	1202.98163	-522.41504	-261.45770	1117.24460	-679.06257	-435.85142	1199.59573	-612.93132	-197.56497	1632.39812	-518.59743	-115.02093	1554.22608	-349.97303	-113.39710	1584.42262	-689.07125	-78.16680	1516.74297	-496.44823	-75.85779	1518.03593	-538.09672	-104.78254	1301.25124	-259.87531	-188.90705	1162.06877	-260.90300	-144.73717	1198.13874	-190.33491	25.43399	1216.76313	-315.88829	91.75843	1229.75822	-373.42131	100.76230	1196.58847	-359.71259	-98.80539	1305.48467	-761.46252	-197.19092	1208.70067	-759.52558	-137.61268	1221.63714	-818.74312	31.91484	1224.38412	-701.56780	80.55226	1234.07728	-647.43019	90.26523	1207.68512	-667.40762	-384.67214	1057.43230	-453.94083	-365.74501	1051.07757	-650.40465	-377.51141	1063.91072	-460.19270	-347.25564	1057.28671	-637.31965	
